<svg xmlns="http://www.w3.org/2000/svg" xmlns:xlink="http://www.w3.org/1999/xlink" contentStyleType="text/css" data-diagram-type="CLASS" height="703px" preserveAspectRatio="none" style="width:1751px;height:703px;background:#FFFFFF;" version="1.1" viewBox="0 0 1751 703" width="1751px" zoomAndPan="magnify"><defs/><g><!--class Athlete--><g class="entity" data-qualified-name="Athlete" data-source-line="2" id="ent0002"><rect fill="#F1F1F1" height="162.0781" rx="2.5" ry="2.5" style="stroke:#181818;stroke-width:0.5;" width="184.4502" x="451.58" y="7"/><ellipse cx="514.2826" cy="23" fill="#ADD1B2" rx="11" ry="11" style="stroke:#181818;stroke-width:1;"/><path d="M517.2514,28.6406 Q516.6733,28.9375 516.0326,29.0781 Q515.392,29.2344 514.6889,29.2344 Q512.1889,29.2344 510.8608,27.5938 Q509.5483,25.9375 509.5483,22.8125 Q509.5483,19.6875 510.8608,18.0313 Q512.1889,16.375 514.6889,16.375 Q515.392,16.375 516.0326,16.5313 Q516.6889,16.6875 517.2514,16.9844 L517.2514,19.7031 Q516.6264,19.125 516.0326,18.8594 Q515.4389,18.5781 514.8139,18.5781 Q513.4701,18.5781 512.7826,19.6563 Q512.0951,20.7188 512.0951,22.8125 Q512.0951,24.9063 512.7826,25.9844 Q513.4701,27.0469 514.8139,27.0469 Q515.4389,27.0469 516.0326,26.7813 Q516.6264,26.5 517.2514,25.9219 L517.2514,28.6406 Z " fill="#000000"/><text fill="#000000" font-family="sans-serif" font-size="14" lengthAdjust="spacing" textLength="50.5449" x="534.7826" y="27.8467">Athlete</text><line style="stroke:#181818;stroke-width:0.5;" x1="452.58" x2="635.0302" y1="39" y2="39"/><g data-visibility-modifier="PRIVATE_FIELD"><rect fill="none" height="6" style="stroke:#C82930;stroke-width:1;" width="6" x="459.58" y="49.6484"/></g><text fill="#000000" font-family="sans-serif" font-size="14" lengthAdjust="spacing" textLength="63.7246" x="471.58" y="55.9951">id: String</text><g data-visibility-modifier="PRIVATE_FIELD"><rect fill="none" height="6" style="stroke:#C82930;stroke-width:1;" width="6" x="459.58" y="65.9453"/></g><text fill="#000000" font-family="sans-serif" font-size="14" lengthAdjust="spacing" textLength="90.6514" x="471.58" y="72.292">name: String</text><g data-visibility-modifier="PRIVATE_FIELD"><rect fill="none" height="6" style="stroke:#C82930;stroke-width:1;" width="6" x="459.58" y="82.2422"/></g><text fill="#000000" font-family="sans-serif" font-size="14" lengthAdjust="spacing" textLength="158.4502" x="471.58" y="88.5889">dateOfBirth: DateTime</text><g data-visibility-modifier="PRIVATE_FIELD"><rect fill="none" height="6" style="stroke:#C82930;stroke-width:1;" width="6" x="459.58" y="98.5391"/></g><text fill="#000000" font-family="sans-serif" font-size="14" lengthAdjust="spacing" textLength="100.5771" x="471.58" y="104.8857">gender: String</text><g data-visibility-modifier="PRIVATE_FIELD"><rect fill="none" height="6" style="stroke:#C82930;stroke-width:1;" width="6" x="459.58" y="114.8359"/></g><text fill="#000000" font-family="sans-serif" font-size="14" lengthAdjust="spacing" textLength="115.0283" x="471.58" y="121.1826">beltLevel: String</text><g data-visibility-modifier="PRIVATE_FIELD"><rect fill="none" height="6" style="stroke:#C82930;stroke-width:1;" width="6" x="459.58" y="131.1328"/></g><text fill="#000000" font-family="sans-serif" font-size="14" lengthAdjust="spacing" textLength="93.9668" x="471.58" y="137.4795">status: String</text><line style="stroke:#181818;stroke-width:0.5;" x1="452.58" x2="635.0302" y1="144.7813" y2="144.7813"/><g data-visibility-modifier="PUBLIC_METHOD"><ellipse cx="462.58" cy="158.4297" fill="#84BE84" rx="3" ry="3" style="stroke:#038048;stroke-width:1;"/></g><text fill="#000000" font-family="sans-serif" font-size="14" lengthAdjust="spacing" textLength="117.708" x="471.58" y="161.7764">toString(): String</text></g><!--class User--><g class="entity" data-qualified-name="User" data-source-line="12" id="ent0003"><rect fill="#F1F1F1" height="129.4844" rx="2.5" ry="2.5" style="stroke:#181818;stroke-width:0.5;" width="190.418" x="670.6" y="23.3"/><ellipse cx="745.6039" cy="39.3" fill="#ADD1B2" rx="11" ry="11" style="stroke:#181818;stroke-width:1;"/><path d="M748.5727,44.9406 Q747.9945,45.2375 747.3539,45.3781 Q746.7133,45.5344 746.0102,45.5344 Q743.5102,45.5344 742.182,43.8937 Q740.8695,42.2375 740.8695,39.1125 Q740.8695,35.9875 742.182,34.3312 Q743.5102,32.675 746.0102,32.675 Q746.7133,32.675 747.3539,32.8312 Q748.0102,32.9875 748.5727,33.2844 L748.5727,36.0031 Q747.9477,35.425 747.3539,35.1594 Q746.7602,34.8781 746.1352,34.8781 Q744.7914,34.8781 744.1039,35.9562 Q743.4164,37.0187 743.4164,39.1125 Q743.4164,41.2062 744.1039,42.2844 Q744.7914,43.3469 746.1352,43.3469 Q746.7602,43.3469 747.3539,43.0812 Q747.9477,42.8 748.5727,42.2219 L748.5727,44.9406 Z " fill="#000000"/><text fill="#000000" font-family="sans-serif" font-size="14" lengthAdjust="spacing" textLength="31.9102" x="766.1039" y="44.1467">User</text><line style="stroke:#181818;stroke-width:0.5;" x1="671.6" x2="860.018" y1="55.3" y2="55.3"/><g data-visibility-modifier="PRIVATE_FIELD"><rect fill="none" height="6" style="stroke:#C82930;stroke-width:1;" width="6" x="678.6" y="65.9484"/></g><text fill="#000000" font-family="sans-serif" font-size="14" lengthAdjust="spacing" textLength="90.6514" x="690.6" y="72.2951">name: String</text><g data-visibility-modifier="PRIVATE_FIELD"><rect fill="none" height="6" style="stroke:#C82930;stroke-width:1;" width="6" x="678.6" y="82.2453"/></g><text fill="#000000" font-family="sans-serif" font-size="14" lengthAdjust="spacing" textLength="89.5576" x="690.6" y="88.592">email: String</text><g data-visibility-modifier="PRIVATE_FIELD"><rect fill="none" height="6" style="stroke:#C82930;stroke-width:1;" width="6" x="678.6" y="98.5422"/></g><text fill="#000000" font-family="sans-serif" font-size="14" lengthAdjust="spacing" textLength="77.7725" x="690.6" y="104.8889">role: String</text><g data-visibility-modifier="PRIVATE_FIELD"><rect fill="none" height="6" style="stroke:#C82930;stroke-width:1;" width="6" x="678.6" y="114.8391"/></g><text fill="#000000" font-family="sans-serif" font-size="14" lengthAdjust="spacing" textLength="164.418" x="690.6" y="121.1857">createdDate: DateTime</text><line style="stroke:#181818;stroke-width:0.5;" x1="671.6" x2="860.018" y1="128.4875" y2="128.4875"/><g data-visibility-modifier="PUBLIC_METHOD"><ellipse cx="681.6" cy="142.1359" fill="#84BE84" rx="3" ry="3" style="stroke:#038048;stroke-width:1;"/></g><text fill="#000000" font-family="sans-serif" font-size="14" lengthAdjust="spacing" textLength="117.708" x="690.6" y="145.4826">toString(): String</text></g><!--class CoachNotes--><g class="entity" data-qualified-name="CoachNotes" data-source-line="20" id="ent0004"><rect fill="#F1F1F1" height="129.4844" rx="2.5" ry="2.5" style="stroke:#181818;stroke-width:0.5;" width="197.6162" x="7" y="534.05"/><ellipse cx="59.5957" cy="550.05" fill="#ADD1B2" rx="11" ry="11" style="stroke:#181818;stroke-width:1;"/><path d="M62.5645,555.6906 Q61.9863,555.9875 61.3457,556.1281 Q60.7051,556.2844 60.002,556.2844 Q57.502,556.2844 56.1738,554.6438 Q54.8613,552.9875 54.8613,549.8625 Q54.8613,546.7375 56.1738,545.0813 Q57.502,543.425 60.002,543.425 Q60.7051,543.425 61.3457,543.5813 Q62.002,543.7375 62.5645,544.0344 L62.5645,546.7531 Q61.9395,546.175 61.3457,545.9094 Q60.752,545.6281 60.127,545.6281 Q58.7832,545.6281 58.0957,546.7063 Q57.4082,547.7688 57.4082,549.8625 Q57.4082,551.9563 58.0957,553.0344 Q58.7832,554.0969 60.127,554.0969 Q60.752,554.0969 61.3457,553.8313 Q61.9395,553.55 62.5645,552.9719 L62.5645,555.6906 Z " fill="#000000"/><text fill="#000000" font-family="sans-serif" font-size="14" lengthAdjust="spacing" textLength="83.9248" x="80.0957" y="554.8967">CoachNotes</text><line style="stroke:#181818;stroke-width:0.5;" x1="8" x2="203.6162" y1="566.05" y2="566.05"/><g data-visibility-modifier="PRIVATE_FIELD"><rect fill="none" height="6" style="stroke:#C82930;stroke-width:1;" width="6" x="15" y="576.6984"/></g><text fill="#000000" font-family="sans-serif" font-size="14" lengthAdjust="spacing" textLength="63.7246" x="27" y="583.0451">id: String</text><g data-visibility-modifier="PRIVATE_FIELD"><rect fill="none" height="6" style="stroke:#C82930;stroke-width:1;" width="6" x="15" y="592.9953"/></g><text fill="#000000" font-family="sans-serif" font-size="14" lengthAdjust="spacing" textLength="171.6162" x="27" y="599.342">trainingSessionId: String</text><g data-visibility-modifier="PRIVATE_FIELD"><rect fill="none" height="6" style="stroke:#C82930;stroke-width:1;" width="6" x="15" y="609.2922"/></g><text fill="#000000" font-family="sans-serif" font-size="14" lengthAdjust="spacing" textLength="82.2227" x="27" y="615.6389">type: String</text><g data-visibility-modifier="PRIVATE_FIELD"><rect fill="none" height="6" style="stroke:#C82930;stroke-width:1;" width="6" x="15" y="625.5891"/></g><text fill="#000000" font-family="sans-serif" font-size="14" lengthAdjust="spacing" textLength="113.8662" x="27" y="631.9357">message: String</text><g data-visibility-modifier="PRIVATE_FIELD"><rect fill="none" height="6" style="stroke:#C82930;stroke-width:1;" width="6" x="15" y="641.8859"/></g><text fill="#000000" font-family="sans-serif" font-size="14" lengthAdjust="spacing" textLength="146.0225" x="27" y="648.2326">createdAt: DateTime</text><line style="stroke:#181818;stroke-width:0.5;" x1="8" x2="203.6162" y1="655.5344" y2="655.5344"/></g><!--class TrainingSessions--><g class="entity" data-qualified-name="TrainingSessions" data-source-line="28" id="ent0005"><rect fill="#F1F1F1" height="145.7813" rx="2.5" ry="2.5" style="stroke:#181818;stroke-width:0.5;" width="195.5176" x="446.05" y="262.38"/><ellipse cx="481.529" cy="278.38" fill="#ADD1B2" rx="11" ry="11" style="stroke:#181818;stroke-width:1;"/><path d="M484.4977,284.0206 Q483.9196,284.3175 483.279,284.4581 Q482.6383,284.6144 481.9352,284.6144 Q479.4352,284.6144 478.1071,282.9738 Q476.7946,281.3175 476.7946,278.1925 Q476.7946,275.0675 478.1071,273.4113 Q479.4352,271.755 481.9352,271.755 Q482.6383,271.755 483.279,271.9113 Q483.9352,272.0675 484.4977,272.3644 L484.4977,275.0831 Q483.8727,274.505 483.279,274.2394 Q482.6852,273.9581 482.0602,273.9581 Q480.7165,273.9581 480.029,275.0363 Q479.3415,276.0988 479.3415,278.1925 Q479.3415,280.2863 480.029,281.3644 Q480.7165,282.4269 482.0602,282.4269 Q482.6852,282.4269 483.279,282.1613 Q483.8727,281.88 484.4977,281.3019 L484.4977,284.0206 Z " fill="#000000"/><text fill="#000000" font-family="sans-serif" font-size="14" lengthAdjust="spacing" textLength="118.0088" x="500.0798" y="283.2267">TrainingSessions</text><line style="stroke:#181818;stroke-width:0.5;" x1="447.05" x2="640.5676" y1="294.38" y2="294.38"/><g data-visibility-modifier="PRIVATE_FIELD"><rect fill="none" height="6" style="stroke:#C82930;stroke-width:1;" width="6" x="454.05" y="305.0284"/></g><text fill="#000000" font-family="sans-serif" font-size="14" lengthAdjust="spacing" textLength="63.7246" x="466.05" y="311.3751">id: String</text><g data-visibility-modifier="PRIVATE_FIELD"><rect fill="none" height="6" style="stroke:#C82930;stroke-width:1;" width="6" x="454.05" y="321.3253"/></g><text fill="#000000" font-family="sans-serif" font-size="14" lengthAdjust="spacing" textLength="143.582" x="466.05" y="327.672">dateTime: DateTime</text><g data-visibility-modifier="PRIVATE_FIELD"><rect fill="none" height="6" style="stroke:#C82930;stroke-width:1;" width="6" x="454.05" y="337.6222"/></g><text fill="#000000" font-family="sans-serif" font-size="14" lengthAdjust="spacing" textLength="113.5107" x="466.05" y="343.9689">athleteId: String</text><g data-visibility-modifier="PRIVATE_FIELD"><rect fill="none" height="6" style="stroke:#C82930;stroke-width:1;" width="6" x="454.05" y="353.9191"/></g><text fill="#000000" font-family="sans-serif" font-size="14" lengthAdjust="spacing" textLength="105.376" x="466.05" y="360.2657">coachId: String</text><g data-visibility-modifier="PRIVATE_FIELD"><rect fill="none" height="6" style="stroke:#C82930;stroke-width:1;" width="6" x="454.05" y="370.2159"/></g><text fill="#000000" font-family="sans-serif" font-size="14" lengthAdjust="spacing" textLength="137.1084" x="466.05" y="376.5626">sessionType: String</text><g data-visibility-modifier="PRIVATE_FIELD"><rect fill="none" height="6" style="stroke:#C82930;stroke-width:1;" width="6" x="454.05" y="386.5128"/></g><text fill="#000000" font-family="sans-serif" font-size="14" lengthAdjust="spacing" textLength="169.5176" x="466.05" y="392.8595">trainingResultId: String?</text><line style="stroke:#181818;stroke-width:0.5;" x1="447.05" x2="640.5676" y1="400.1613" y2="400.1613"/></g><!--class TrainingResults--><g class="entity" data-qualified-name="TrainingResults" data-source-line="37" id="ent0006"><rect fill="#F1F1F1" height="129.4844" rx="2.5" ry="2.5" style="stroke:#181818;stroke-width:0.5;" width="171.2363" x="239.19" y="534.05"/><ellipse cx="268.0306" cy="550.05" fill="#ADD1B2" rx="11" ry="11" style="stroke:#181818;stroke-width:1;"/><path d="M270.9993,555.6906 Q270.4212,555.9875 269.7806,556.1281 Q269.14,556.2844 268.4368,556.2844 Q265.9368,556.2844 264.6087,554.6438 Q263.2962,552.9875 263.2962,549.8625 Q263.2962,546.7375 264.6087,545.0813 Q265.9368,543.425 268.4368,543.425 Q269.14,543.425 269.7806,543.5813 Q270.4368,543.7375 270.9993,544.0344 L270.9993,546.7531 Q270.3743,546.175 269.7806,545.9094 Q269.1868,545.6281 268.5618,545.6281 Q267.2181,545.6281 266.5306,546.7063 Q265.8431,547.7688 265.8431,549.8625 Q265.8431,551.9563 266.5306,553.0344 Q267.2181,554.0969 268.5618,554.0969 Q269.1868,554.0969 269.7806,553.8313 Q270.3743,553.55 270.9993,552.9719 L270.9993,555.6906 Z " fill="#000000"/><text fill="#000000" font-family="sans-serif" font-size="14" lengthAdjust="spacing" textLength="108.4795" x="285.1063" y="554.8967">TrainingResults</text><line style="stroke:#181818;stroke-width:0.5;" x1="240.19" x2="409.4263" y1="566.05" y2="566.05"/><g data-visibility-modifier="PRIVATE_FIELD"><rect fill="none" height="6" style="stroke:#C82930;stroke-width:1;" width="6" x="247.19" y="576.6984"/></g><text fill="#000000" font-family="sans-serif" font-size="14" lengthAdjust="spacing" textLength="63.7246" x="259.19" y="583.0451">id: String</text><g data-visibility-modifier="PRIVATE_FIELD"><rect fill="none" height="6" style="stroke:#C82930;stroke-width:1;" width="6" x="247.19" y="592.9953"/></g><text fill="#000000" font-family="sans-serif" font-size="14" lengthAdjust="spacing" textLength="143.9785" x="259.19" y="599.342">overallScore: double</text><g data-visibility-modifier="PRIVATE_FIELD"><rect fill="none" height="6" style="stroke:#C82930;stroke-width:1;" width="6" x="247.19" y="609.2922"/></g><text fill="#000000" font-family="sans-serif" font-size="14" lengthAdjust="spacing" textLength="145.2363" x="259.19" y="615.6389">controlScore: double</text><g data-visibility-modifier="PRIVATE_FIELD"><rect fill="none" height="6" style="stroke:#C82930;stroke-width:1;" width="6" x="247.19" y="625.5891"/></g><text fill="#000000" font-family="sans-serif" font-size="14" lengthAdjust="spacing" textLength="138.6943" x="259.19" y="631.9357">speedScore: double</text><g data-visibility-modifier="PRIVATE_FIELD"><rect fill="none" height="6" style="stroke:#C82930;stroke-width:1;" width="6" x="247.19" y="641.8859"/></g><text fill="#000000" font-family="sans-serif" font-size="14" lengthAdjust="spacing" textLength="126.2119" x="259.19" y="648.2326">strengthScore: int</text><line style="stroke:#181818;stroke-width:0.5;" x1="240.19" x2="409.4263" y1="655.5344" y2="655.5344"/></g><!--class SkillRatings--><g class="entity" data-qualified-name="SkillRatings" data-source-line="45" id="ent0007"><rect fill="#F1F1F1" height="113.1875" rx="2.5" ry="2.5" style="stroke:#181818;stroke-width:0.5;" width="128.1836" x="895.72" y="31.45"/><ellipse cx="917.3716" cy="47.45" fill="#ADD1B2" rx="11" ry="11" style="stroke:#181818;stroke-width:1;"/><path d="M920.3403,53.0906 Q919.7622,53.3875 919.1216,53.5281 Q918.4809,53.6844 917.7778,53.6844 Q915.2778,53.6844 913.9497,52.0438 Q912.6372,50.3875 912.6372,47.2625 Q912.6372,44.1375 913.9497,42.4813 Q915.2778,40.825 917.7778,40.825 Q918.4809,40.825 919.1216,40.9813 Q919.7778,41.1375 920.3403,41.4344 L920.3403,44.1531 Q919.7153,43.575 919.1216,43.3094 Q918.5278,43.0281 917.9028,43.0281 Q916.5591,43.0281 915.8716,44.1063 Q915.1841,45.1688 915.1841,47.2625 Q915.1841,49.3563 915.8716,50.4344 Q916.5591,51.4969 917.9028,51.4969 Q918.5278,51.4969 919.1216,51.2313 Q919.7153,50.95 920.3403,50.3719 L920.3403,53.0906 Z " fill="#000000"/><text fill="#000000" font-family="sans-serif" font-size="14" lengthAdjust="spacing" textLength="81.4023" x="932.8497" y="52.2967">SkillRatings</text><line style="stroke:#181818;stroke-width:0.5;" x1="896.72" x2="1022.9036" y1="63.45" y2="63.45"/><g data-visibility-modifier="PRIVATE_FIELD"><rect fill="none" height="6" style="stroke:#C82930;stroke-width:1;" width="6" x="903.72" y="74.0984"/></g><text fill="#000000" font-family="sans-serif" font-size="14" lengthAdjust="spacing" textLength="63.7246" x="915.72" y="80.4451">id: String</text><g data-visibility-modifier="PRIVATE_FIELD"><rect fill="none" height="6" style="stroke:#C82930;stroke-width:1;" width="6" x="903.72" y="90.3953"/></g><text fill="#000000" font-family="sans-serif" font-size="14" lengthAdjust="spacing" textLength="79.6045" x="915.72" y="96.742">striking: int</text><g data-visibility-modifier="PRIVATE_FIELD"><rect fill="none" height="6" style="stroke:#C82930;stroke-width:1;" width="6" x="903.72" y="106.6922"/></g><text fill="#000000" font-family="sans-serif" font-size="14" lengthAdjust="spacing" textLength="102.1836" x="915.72" y="113.0389">endurance: int</text><g data-visibility-modifier="PRIVATE_FIELD"><rect fill="none" height="6" style="stroke:#C82930;stroke-width:1;" width="6" x="903.72" y="122.9891"/></g><text fill="#000000" font-family="sans-serif" font-size="14" lengthAdjust="spacing" textLength="83.2412" x="915.72" y="129.3357">defense: int</text><line style="stroke:#181818;stroke-width:0.5;" x1="896.72" x2="1022.9036" y1="136.6375" y2="136.6375"/></g><!--class StrengthSessions--><g class="entity" data-qualified-name="StrengthSessions" data-source-line="52" id="ent0008"><rect fill="#F1F1F1" height="194.6719" rx="2.5" ry="2.5" style="stroke:#181818;stroke-width:0.5;" width="197.6162" x="445" y="501.46"/><ellipse cx="479.8176" cy="517.46" fill="#ADD1B2" rx="11" ry="11" style="stroke:#181818;stroke-width:1;"/><path d="M482.7863,523.1006 Q482.2082,523.3975 481.5676,523.5381 Q480.927,523.6944 480.2238,523.6944 Q477.7238,523.6944 476.3957,522.0538 Q475.0832,520.3975 475.0832,517.2725 Q475.0832,514.1475 476.3957,512.4913 Q477.7238,510.835 480.2238,510.835 Q480.927,510.835 481.5676,510.9913 Q482.2238,511.1475 482.7863,511.4444 L482.7863,514.1631 Q482.1613,513.585 481.5676,513.3194 Q480.9738,513.0381 480.3488,513.0381 Q479.0051,513.0381 478.3176,514.1163 Q477.6301,515.1788 477.6301,517.2725 Q477.6301,519.3663 478.3176,520.4444 Q479.0051,521.5069 480.3488,521.5069 Q480.9738,521.5069 481.5676,521.2413 Q482.1613,520.96 482.7863,520.3819 L482.7863,523.1006 Z " fill="#000000"/><text fill="#000000" font-family="sans-serif" font-size="14" lengthAdjust="spacing" textLength="121.5771" x="498.2215" y="522.3067">StrengthSessions</text><line style="stroke:#181818;stroke-width:0.5;" x1="446" x2="641.6162" y1="533.46" y2="533.46"/><g data-visibility-modifier="PRIVATE_FIELD"><rect fill="none" height="6" style="stroke:#C82930;stroke-width:1;" width="6" x="453" y="544.1084"/></g><text fill="#000000" font-family="sans-serif" font-size="14" lengthAdjust="spacing" textLength="63.7246" x="465" y="550.4551">id: String</text><g data-visibility-modifier="PRIVATE_FIELD"><rect fill="none" height="6" style="stroke:#C82930;stroke-width:1;" width="6" x="453" y="560.4053"/></g><text fill="#000000" font-family="sans-serif" font-size="14" lengthAdjust="spacing" textLength="171.6162" x="465" y="566.752">trainingSessionId: String</text><g data-visibility-modifier="PRIVATE_FIELD"><rect fill="none" height="6" style="stroke:#C82930;stroke-width:1;" width="6" x="453" y="576.7022"/></g><text fill="#000000" font-family="sans-serif" font-size="14" lengthAdjust="spacing" textLength="87.7734" x="465" y="583.0489">pushUps: int</text><g data-visibility-modifier="PRIVATE_FIELD"><rect fill="none" height="6" style="stroke:#C82930;stroke-width:1;" width="6" x="453" y="592.9991"/></g><text fill="#000000" font-family="sans-serif" font-size="14" lengthAdjust="spacing" textLength="70.5195" x="465" y="599.3457">sitUps: int</text><g data-visibility-modifier="PRIVATE_FIELD"><rect fill="none" height="6" style="stroke:#C82930;stroke-width:1;" width="6" x="453" y="609.2959"/></g><text fill="#000000" font-family="sans-serif" font-size="14" lengthAdjust="spacing" textLength="73.835" x="465" y="615.6426">squats: int</text><g data-visibility-modifier="PRIVATE_FIELD"><rect fill="none" height="6" style="stroke:#C82930;stroke-width:1;" width="6" x="453" y="625.5928"/></g><text fill="#000000" font-family="sans-serif" font-size="14" lengthAdjust="spacing" textLength="98.0479" x="465" y="631.9395">kickPower: int</text><g data-visibility-modifier="PRIVATE_FIELD"><rect fill="none" height="6" style="stroke:#C82930;stroke-width:1;" width="6" x="453" y="641.8897"/></g><text fill="#000000" font-family="sans-serif" font-size="14" lengthAdjust="spacing" textLength="118.918" x="465" y="648.2364">coreStrength: int</text><g data-visibility-modifier="PRIVATE_FIELD"><rect fill="none" height="6" style="stroke:#C82930;stroke-width:1;" width="6" x="453" y="658.1866"/></g><text fill="#000000" font-family="sans-serif" font-size="14" lengthAdjust="spacing" textLength="109.6758" x="465" y="664.5332">legStrength: int</text><g data-visibility-modifier="PRIVATE_FIELD"><rect fill="none" height="6" style="stroke:#C82930;stroke-width:1;" width="6" x="453" y="674.4834"/></g><text fill="#000000" font-family="sans-serif" font-size="14" lengthAdjust="spacing" textLength="140.2256" x="465" y="680.8301">coachNotes: String?</text><line style="stroke:#181818;stroke-width:0.5;" x1="446" x2="641.6162" y1="688.1319" y2="688.1319"/></g><!--class TechnicalSessions--><g class="entity" data-qualified-name="TechnicalSessions" data-source-line="64" id="ent0009"><rect fill="#F1F1F1" height="162.0781" rx="2.5" ry="2.5" style="stroke:#181818;stroke-width:0.5;" width="200.7539" x="677.43" y="517.76"/><ellipse cx="711.0509" cy="533.76" fill="#ADD1B2" rx="11" ry="11" style="stroke:#181818;stroke-width:1;"/><path d="M714.0197,539.4006 Q713.4416,539.6975 712.8009,539.8381 Q712.1603,539.9944 711.4572,539.9944 Q708.9572,539.9944 707.6291,538.3538 Q706.3166,536.6975 706.3166,533.5725 Q706.3166,530.4475 707.6291,528.7913 Q708.9572,527.135 711.4572,527.135 Q712.1603,527.135 712.8009,527.2913 Q713.4572,527.4475 714.0197,527.7444 L714.0197,530.4631 Q713.3947,529.885 712.8009,529.6194 Q712.2072,529.3381 711.5822,529.3381 Q710.2384,529.3381 709.5509,530.4163 Q708.8634,531.4788 708.8634,533.5725 Q708.8634,535.6663 709.5509,536.7444 Q710.2384,537.8069 711.5822,537.8069 Q712.2072,537.8069 712.8009,537.5413 Q713.3947,537.26 714.0197,536.6819 L714.0197,539.4006 Z " fill="#000000"/><text fill="#000000" font-family="sans-serif" font-size="14" lengthAdjust="spacing" textLength="127.374" x="729.1889" y="538.6067">TechnicalSessions</text><line style="stroke:#181818;stroke-width:0.5;" x1="678.43" x2="877.1839" y1="549.76" y2="549.76"/><g data-visibility-modifier="PRIVATE_FIELD"><rect fill="none" height="6" style="stroke:#C82930;stroke-width:1;" width="6" x="685.43" y="560.4084"/></g><text fill="#000000" font-family="sans-serif" font-size="14" lengthAdjust="spacing" textLength="63.7246" x="697.43" y="566.7551">id: String</text><g data-visibility-modifier="PRIVATE_FIELD"><rect fill="none" height="6" style="stroke:#C82930;stroke-width:1;" width="6" x="685.43" y="576.7053"/></g><text fill="#000000" font-family="sans-serif" font-size="14" lengthAdjust="spacing" textLength="171.6162" x="697.43" y="583.052">trainingSessionId: String</text><g data-visibility-modifier="PRIVATE_FIELD"><rect fill="none" height="6" style="stroke:#C82930;stroke-width:1;" width="6" x="685.43" y="593.0022"/></g><text fill="#000000" font-family="sans-serif" font-size="14" lengthAdjust="spacing" textLength="69.7129" x="697.43" y="599.3489">speed: int</text><g data-visibility-modifier="PRIVATE_FIELD"><rect fill="none" height="6" style="stroke:#C82930;stroke-width:1;" width="6" x="685.43" y="609.2991"/></g><text fill="#000000" font-family="sans-serif" font-size="14" lengthAdjust="spacing" textLength="82.5371" x="697.43" y="615.6457">balance: int</text><g data-visibility-modifier="PRIVATE_FIELD"><rect fill="none" height="6" style="stroke:#C82930;stroke-width:1;" width="6" x="685.43" y="625.5959"/></g><text fill="#000000" font-family="sans-serif" font-size="14" lengthAdjust="spacing" textLength="76.2549" x="697.43" y="631.9426">control: int</text><g data-visibility-modifier="PRIVATE_FIELD"><rect fill="none" height="6" style="stroke:#C82930;stroke-width:1;" width="6" x="685.43" y="641.8928"/></g><text fill="#000000" font-family="sans-serif" font-size="14" lengthAdjust="spacing" textLength="174.7539" x="697.43" y="648.2395">roundhouseAccuracy: int</text><g data-visibility-modifier="PRIVATE_FIELD"><rect fill="none" height="6" style="stroke:#C82930;stroke-width:1;" width="6" x="685.43" y="658.1897"/></g><text fill="#000000" font-family="sans-serif" font-size="14" lengthAdjust="spacing" textLength="140.2256" x="697.43" y="664.5364">coachNotes: String?</text><line style="stroke:#181818;stroke-width:0.5;" x1="678.43" x2="877.1839" y1="671.8381" y2="671.8381"/></g><!--class PhysicalConditioningSessions--><g class="entity" data-qualified-name="PhysicalConditioningSessions" data-source-line="74" id="ent0010"><rect fill="#F1F1F1" height="145.7813" rx="2.5" ry="2.5" style="stroke:#181818;stroke-width:0.5;" width="238.1172" x="912.75" y="525.9"/><ellipse cx="927.75" cy="541.9" fill="#ADD1B2" rx="11" ry="11" style="stroke:#181818;stroke-width:1;"/><path d="M930.7188,547.5406 Q930.1406,547.8375 929.5,547.9781 Q928.8594,548.1344 928.1563,548.1344 Q925.6563,548.1344 924.3281,546.4938 Q923.0156,544.8375 923.0156,541.7125 Q923.0156,538.5875 924.3281,536.9313 Q925.6563,535.275 928.1563,535.275 Q928.8594,535.275 929.5,535.4313 Q930.1563,535.5875 930.7188,535.8844 L930.7188,538.6031 Q930.0938,538.025 929.5,537.7594 Q928.9063,537.4781 928.2813,537.4781 Q926.9375,537.4781 926.25,538.5563 Q925.5625,539.6188 925.5625,541.7125 Q925.5625,543.8063 926.25,544.8844 Q926.9375,545.9469 928.2813,545.9469 Q928.9063,545.9469 929.5,545.6813 Q930.0938,545.4 930.7188,544.8219 L930.7188,547.5406 Z " fill="#000000"/><text fill="#000000" font-family="sans-serif" font-size="14" lengthAdjust="spacing" textLength="206.1172" x="941.75" y="546.7467">PhysicalConditioningSessions</text><line style="stroke:#181818;stroke-width:0.5;" x1="913.75" x2="1149.8672" y1="557.9" y2="557.9"/><g data-visibility-modifier="PRIVATE_FIELD"><rect fill="none" height="6" style="stroke:#C82930;stroke-width:1;" width="6" x="920.75" y="568.5484"/></g><text fill="#000000" font-family="sans-serif" font-size="14" lengthAdjust="spacing" textLength="63.7246" x="932.75" y="574.8951">id: String</text><g data-visibility-modifier="PRIVATE_FIELD"><rect fill="none" height="6" style="stroke:#C82930;stroke-width:1;" width="6" x="920.75" y="584.8453"/></g><text fill="#000000" font-family="sans-serif" font-size="14" lengthAdjust="spacing" textLength="171.6162" x="932.75" y="591.192">trainingSessionId: String</text><g data-visibility-modifier="PRIVATE_FIELD"><rect fill="none" height="6" style="stroke:#C82930;stroke-width:1;" width="6" x="920.75" y="601.1422"/></g><text fill="#000000" font-family="sans-serif" font-size="14" lengthAdjust="spacing" textLength="83.7607" x="932.75" y="607.4889">stamina: int</text><g data-visibility-modifier="PRIVATE_FIELD"><rect fill="none" height="6" style="stroke:#C82930;stroke-width:1;" width="6" x="920.75" y="617.4391"/></g><text fill="#000000" font-family="sans-serif" font-size="14" lengthAdjust="spacing" textLength="91.3555" x="932.75" y="623.7857">flexibility: int</text><g data-visibility-modifier="PRIVATE_FIELD"><rect fill="none" height="6" style="stroke:#C82930;stroke-width:1;" width="6" x="920.75" y="633.7359"/></g><text fill="#000000" font-family="sans-serif" font-size="14" lengthAdjust="spacing" textLength="128.7686" x="932.75" y="640.0826">reactionSpeed: int</text><g data-visibility-modifier="PRIVATE_FIELD"><rect fill="none" height="6" style="stroke:#C82930;stroke-width:1;" width="6" x="920.75" y="650.0328"/></g><text fill="#000000" font-family="sans-serif" font-size="14" lengthAdjust="spacing" textLength="140.2256" x="932.75" y="656.3795">coachNotes: String?</text><line style="stroke:#181818;stroke-width:0.5;" x1="913.75" x2="1149.8672" y1="663.6813" y2="663.6813"/></g><!--class SessionRecord--><g class="entity" data-qualified-name="SessionRecord" data-source-line="83" id="ent0011"><rect fill="#F1F1F1" height="178.375" rx="2.5" ry="2.5" style="stroke:#181818;stroke-width:0.5;" width="273.7412" x="1015.94" y="246.08"/><ellipse cx="1097.2296" cy="262.08" fill="#ADD1B2" rx="11" ry="11" style="stroke:#181818;stroke-width:1;"/><path d="M1100.1983,267.7206 Q1099.6202,268.0175 1098.9796,268.1581 Q1098.3389,268.3144 1097.6358,268.3144 Q1095.1358,268.3144 1093.8077,266.6738 Q1092.4952,265.0175 1092.4952,261.8925 Q1092.4952,258.7675 1093.8077,257.1113 Q1095.1358,255.455 1097.6358,255.455 Q1098.3389,255.455 1098.9796,255.6112 Q1099.6358,255.7675 1100.1983,256.0644 L1100.1983,258.7831 Q1099.5733,258.205 1098.9796,257.9394 Q1098.3858,257.6581 1097.7608,257.6581 Q1096.4171,257.6581 1095.7296,258.7363 Q1095.0421,259.7988 1095.0421,261.8925 Q1095.0421,263.9863 1095.7296,265.0644 Q1096.4171,266.1269 1097.7608,266.1269 Q1098.3858,266.1269 1098.9796,265.8613 Q1099.5733,265.58 1100.1983,265.0019 L1100.1983,267.7206 Z " fill="#000000"/><text fill="#000000" font-family="sans-serif" font-size="14" lengthAdjust="spacing" textLength="102.6621" x="1117.7296" y="266.9267">SessionRecord</text><line style="stroke:#181818;stroke-width:0.5;" x1="1016.94" x2="1288.6812" y1="278.08" y2="278.08"/><g data-visibility-modifier="PRIVATE_FIELD"><rect fill="none" height="6" style="stroke:#C82930;stroke-width:1;" width="6" x="1023.94" y="288.7284"/></g><text fill="#000000" font-family="sans-serif" font-size="14" lengthAdjust="spacing" textLength="63.7246" x="1035.94" y="295.0751">id: String</text><g data-visibility-modifier="PRIVATE_FIELD"><rect fill="none" height="6" style="stroke:#C82930;stroke-width:1;" width="6" x="1023.94" y="305.0253"/></g><text fill="#000000" font-family="sans-serif" font-size="14" lengthAdjust="spacing" textLength="171.6162" x="1035.94" y="311.372">trainingSessionId: String</text><g data-visibility-modifier="PRIVATE_FIELD"><rect fill="none" height="6" style="stroke:#C82930;stroke-width:1;" width="6" x="1023.94" y="321.3222"/></g><text fill="#000000" font-family="sans-serif" font-size="14" lengthAdjust="spacing" textLength="113.5107" x="1035.94" y="327.6689">athleteId: String</text><g data-visibility-modifier="PRIVATE_FIELD"><rect fill="none" height="6" style="stroke:#C82930;stroke-width:1;" width="6" x="1023.94" y="337.6191"/></g><text fill="#000000" font-family="sans-serif" font-size="14" lengthAdjust="spacing" textLength="137.1084" x="1035.94" y="343.9657">sessionType: String</text><g data-visibility-modifier="PRIVATE_FIELD"><rect fill="none" height="6" style="stroke:#C82930;stroke-width:1;" width="6" x="1023.94" y="353.9159"/></g><text fill="#000000" font-family="sans-serif" font-size="14" lengthAdjust="spacing" textLength="223.9248" x="1035.94" y="360.2626">payload: Map&lt;String,dynamic&gt;</text><g data-visibility-modifier="PRIVATE_FIELD"><rect fill="none" height="6" style="stroke:#C82930;stroke-width:1;" width="6" x="1023.94" y="370.2128"/></g><text fill="#000000" font-family="sans-serif" font-size="14" lengthAdjust="spacing" textLength="143.582" x="1035.94" y="376.5595">dateTime: DateTime</text><line style="stroke:#181818;stroke-width:0.5;" x1="1016.94" x2="1288.6812" y1="383.8613" y2="383.8613"/><g data-visibility-modifier="PUBLIC_METHOD"><ellipse cx="1026.94" cy="397.5097" fill="#84BE84" rx="3" ry="3" style="stroke:#038048;stroke-width:1;"/></g><text fill="#000000" font-family="sans-serif" font-size="14" lengthAdjust="spacing" textLength="83.3574" x="1035.94" y="400.8564">toDb(): Map</text><g data-visibility-modifier="PUBLIC_METHOD"><ellipse cx="1026.94" cy="413.8066" fill="#84BE84" rx="3" ry="3" style="stroke:#038048;stroke-width:1;"/></g><text fill="#000000" font-family="sans-serif" font-size="14" lengthAdjust="spacing" textLength="247.7412" x="1035.94" y="417.1532">static fromDb(Map): SessionRecord</text></g><!--class SessionRepository--><g class="entity" data-qualified-name="SessionRepository" data-source-line="94" id="ent0012"><rect fill="#F1F1F1" height="113.1875" rx="2.5" ry="2.5" style="stroke:#181818;stroke-width:0.5;" width="399.0098" x="1059.3" y="31.45"/><ellipse cx="1190.3107" cy="47.45" fill="#ADD1B2" rx="11" ry="11" style="stroke:#181818;stroke-width:1;"/><path d="M1193.2795,53.0906 Q1192.7014,53.3875 1192.0607,53.5281 Q1191.4201,53.6844 1190.717,53.6844 Q1188.217,53.6844 1186.8889,52.0438 Q1185.5764,50.3875 1185.5764,47.2625 Q1185.5764,44.1375 1186.8889,42.4813 Q1188.217,40.825 1190.717,40.825 Q1191.4201,40.825 1192.0607,40.9813 Q1192.717,41.1375 1193.2795,41.4344 L1193.2795,44.1531 Q1192.6545,43.575 1192.0607,43.3094 Q1191.467,43.0281 1190.842,43.0281 Q1189.4982,43.0281 1188.8107,44.1063 Q1188.1232,45.1688 1188.1232,47.2625 Q1188.1232,49.3563 1188.8107,50.4344 Q1189.4982,51.4969 1190.842,51.4969 Q1191.467,51.4969 1192.0607,51.2313 Q1192.6545,50.95 1193.2795,50.3719 L1193.2795,53.0906 Z " fill="#000000"/><text fill="#000000" font-family="sans-serif" font-size="14" lengthAdjust="spacing" textLength="128.4883" x="1210.8107" y="52.2967">SessionRepository</text><line style="stroke:#181818;stroke-width:0.5;" x1="1060.3" x2="1457.3098" y1="63.45" y2="63.45"/><g data-visibility-modifier="PUBLIC_FIELD"><ellipse cx="1070.3" cy="77.0984" fill="none" rx="3" ry="3" style="stroke:#038048;stroke-width:1;"/></g><text fill="#000000" font-family="sans-serif" font-size="14" lengthAdjust="spacing" textLength="196.9639" x="1079.3" y="80.4451">instance: SessionRepository</text><line style="stroke:#181818;stroke-width:0.5;" x1="1060.3" x2="1457.3098" y1="87.7469" y2="87.7469"/><g data-visibility-modifier="PUBLIC_METHOD"><ellipse cx="1070.3" cy="101.3953" fill="#84BE84" rx="3" ry="3" style="stroke:#038048;stroke-width:1;"/></g><text fill="#000000" font-family="sans-serif" font-size="14" lengthAdjust="spacing" textLength="254.2695" x="1079.3" y="104.742">save(SessionRecord): Future&lt;void&gt;</text><g data-visibility-modifier="PUBLIC_METHOD"><ellipse cx="1070.3" cy="117.6922" fill="#84BE84" rx="3" ry="3" style="stroke:#038048;stroke-width:1;"/></g><text fill="#000000" font-family="sans-serif" font-size="14" lengthAdjust="spacing" textLength="373.0098" x="1079.3" y="121.0389">getByAthlete(String): Future&lt;List&lt;SessionRecord&gt;&gt;</text><g data-visibility-modifier="PUBLIC_METHOD"><ellipse cx="1070.3" cy="133.9891" fill="#84BE84" rx="3" ry="3" style="stroke:#038048;stroke-width:1;"/></g><text fill="#000000" font-family="sans-serif" font-size="14" lengthAdjust="spacing" textLength="224.2529" x="1079.3" y="137.3357">deleteById(String): Future&lt;int&gt;</text></g><!--class DBProvider--><g class="entity" data-qualified-name="DBProvider" data-source-line="101" id="ent0013"><rect fill="#F1F1F1" height="113.1875" rx="2.5" ry="2.5" style="stroke:#181818;stroke-width:0.5;" width="419.3467" x="1325.13" y="278.68"/><ellipse cx="1491.2638" cy="294.68" fill="#ADD1B2" rx="11" ry="11" style="stroke:#181818;stroke-width:1;"/><path d="M1494.2325,300.3206 Q1493.6544,300.6175 1493.0138,300.7581 Q1492.3732,300.9144 1491.67,300.9144 Q1489.17,300.9144 1487.8419,299.2738 Q1486.5294,297.6175 1486.5294,294.4925 Q1486.5294,291.3675 1487.8419,289.7113 Q1489.17,288.055 1491.67,288.055 Q1492.3732,288.055 1493.0138,288.2113 Q1493.67,288.3675 1494.2325,288.6644 L1494.2325,291.3831 Q1493.6075,290.805 1493.0138,290.5394 Q1492.42,290.2581 1491.795,290.2581 Q1490.4513,290.2581 1489.7638,291.3363 Q1489.0763,292.3988 1489.0763,294.4925 Q1489.0763,296.5863 1489.7638,297.6644 Q1490.4513,298.7269 1491.795,298.7269 Q1492.42,298.7269 1493.0138,298.4613 Q1493.6075,298.18 1494.2325,297.6019 L1494.2325,300.3206 Z " fill="#000000"/><text fill="#000000" font-family="sans-serif" font-size="14" lengthAdjust="spacing" textLength="78.5791" x="1511.7638" y="299.5267">DBProvider</text><line style="stroke:#181818;stroke-width:0.5;" x1="1326.13" x2="1743.4767" y1="310.68" y2="310.68"/><g data-visibility-modifier="PUBLIC_FIELD"><ellipse cx="1336.13" cy="324.3284" fill="none" rx="3" ry="3" style="stroke:#038048;stroke-width:1;"/></g><text fill="#000000" font-family="sans-serif" font-size="14" lengthAdjust="spacing" textLength="147.0547" x="1345.13" y="327.6751">instance: DBProvider</text><line style="stroke:#181818;stroke-width:0.5;" x1="1326.13" x2="1743.4767" y1="334.9769" y2="334.9769"/><g data-visibility-modifier="PUBLIC_METHOD"><ellipse cx="1336.13" cy="348.6253" fill="#84BE84" rx="3" ry="3" style="stroke:#038048;stroke-width:1;"/></g><text fill="#000000" font-family="sans-serif" font-size="14" lengthAdjust="spacing" textLength="221.2793" x="1345.13" y="351.972">insert(table, Map): Future&lt;int&gt;</text><g data-visibility-modifier="PUBLIC_METHOD"><ellipse cx="1336.13" cy="364.9222" fill="#84BE84" rx="3" ry="3" style="stroke:#038048;stroke-width:1;"/></g><text fill="#000000" font-family="sans-serif" font-size="14" lengthAdjust="spacing" textLength="393.3467" x="1345.13" y="368.2689">query(table, where?, whereArgs?): Future&lt;List&lt;Map&gt;&gt;</text><g data-visibility-modifier="PUBLIC_METHOD"><ellipse cx="1336.13" cy="381.2191" fill="#84BE84" rx="3" ry="3" style="stroke:#038048;stroke-width:1;"/></g><text fill="#000000" font-family="sans-serif" font-size="14" lengthAdjust="spacing" textLength="337.8115" x="1345.13" y="384.5657">delete(table, where?, whereArgs?): Future&lt;int&gt;</text></g><!--class sessions table--><g class="entity" data-qualified-name="sessions table" data-source-line="117" id="ent0022"><rect fill="#F1F1F1" height="48" rx="2.5" ry="2.5" style="stroke:#181818;stroke-width:0.5;" width="131.0254" x="1469.3" y="574.79"/><ellipse cx="1484.3" cy="590.79" fill="#ADD1B2" rx="11" ry="11" style="stroke:#181818;stroke-width:1;"/><path d="M1487.2688,596.4306 Q1486.6906,596.7275 1486.05,596.8681 Q1485.4094,597.0244 1484.7063,597.0244 Q1482.2063,597.0244 1480.8781,595.3838 Q1479.5656,593.7275 1479.5656,590.6025 Q1479.5656,587.4775 1480.8781,585.8213 Q1482.2063,584.165 1484.7063,584.165 Q1485.4094,584.165 1486.05,584.3213 Q1486.7063,584.4775 1487.2688,584.7744 L1487.2688,587.4931 Q1486.6438,586.915 1486.05,586.6494 Q1485.4563,586.3681 1484.8313,586.3681 Q1483.4875,586.3681 1482.8,587.4463 Q1482.1125,588.5088 1482.1125,590.6025 Q1482.1125,592.6963 1482.8,593.7744 Q1483.4875,594.8369 1484.8313,594.8369 Q1485.4563,594.8369 1486.05,594.5713 Q1486.6438,594.29 1487.2688,593.7119 L1487.2688,596.4306 Z " fill="#000000"/><text fill="#000000" font-family="sans-serif" font-size="14" lengthAdjust="spacing" textLength="99.0254" x="1498.3" y="595.6367">sessions table</text><line style="stroke:#181818;stroke-width:0.5;" x1="1470.3" x2="1599.3254" y1="606.79" y2="606.79"/><line style="stroke:#181818;stroke-width:0.5;" x1="1470.3" x2="1599.3254" y1="614.79" y2="614.79"/></g><!--link Athlete to TrainingSessions--><g class="link" data-entity-1="ent0002" data-entity-2="ent0005" data-link-type="association" data-source-line="109" id="lnk14"><path codeLine="109" d="M543.81,169.34 C543.81,199.23 543.81,232.95 543.81,262.07" fill="none" id="Athlete-TrainingSessions" style="stroke:#181818;stroke-width:1;"/><text fill="#000000" font-family="sans-serif" font-size="13" lengthAdjust="spacing" textLength="22.9785" x="544.81" y="212.1469">has</text><text fill="#000000" font-family="sans-serif" font-size="13" lengthAdjust="spacing" textLength="8.271" x="535.4783" y="189.0439">1</text><text fill="#000000" font-family="sans-serif" font-size="13" lengthAdjust="spacing" textLength="23.0356" x="519.6798" y="251.1995">0..*</text></g><!--link TrainingSessions to TrainingResults--><g class="link" data-entity-1="ent0005" data-entity-2="ent0006" data-link-type="association" data-source-line="110" id="lnk15"><path codeLine="110" d="M483.39,408.43 C450.47,447.73 410.09,495.95 378.32,533.9" fill="none" id="TrainingSessions-TrainingResults" style="stroke:#181818;stroke-width:1;"/><text fill="#000000" font-family="sans-serif" font-size="13" lengthAdjust="spacing" textLength="67.1265" x="442.81" y="467.5269">aggregate</text><text fill="#000000" font-family="sans-serif" font-size="13" lengthAdjust="spacing" textLength="24.8066" x="452.526" y="428.1911">0..1</text><text fill="#000000" font-family="sans-serif" font-size="13" lengthAdjust="spacing" textLength="8.271" x="375.7502" y="523.0563">1</text></g><!--link TrainingSessions to CoachNotes--><g class="link" data-entity-1="ent0005" data-entity-2="ent0004" data-link-type="association" data-source-line="111" id="lnk16"><path codeLine="111" d="M445.61,379.76 C380.17,410.38 293.38,454.21 221.81,501.46 C207.17,511.12 192.25,522.33 178.2,533.6" fill="none" id="TrainingSessions-CoachNotes" style="stroke:#181818;stroke-width:1;"/><text fill="#000000" font-family="sans-serif" font-size="13" lengthAdjust="spacing" textLength="66.7202" x="299.81" y="467.5269">may_have</text><text fill="#000000" font-family="sans-serif" font-size="13" lengthAdjust="spacing" textLength="8.271" x="429.7958" y="379.664">1</text><text fill="#000000" font-family="sans-serif" font-size="13" lengthAdjust="spacing" textLength="23.0356" x="161.4813" y="523.1774">0..*</text></g><!--link TrainingSessions to StrengthSessions--><g class="link" data-entity-1="ent0005" data-entity-2="ent0008" data-link-type="association" data-source-line="112" id="lnk17"><path codeLine="112" d="M543.81,408.43 C543.81,437.15 543.81,470.64 543.81,501.39" fill="none" id="TrainingSessions-StrengthSessions" style="stroke:#181818;stroke-width:1;"/><text fill="#000000" font-family="sans-serif" font-size="13" lengthAdjust="spacing" textLength="8.271" x="535.4418" y="428.1911">1</text><text fill="#000000" font-family="sans-serif" font-size="13" lengthAdjust="spacing" textLength="24.8066" x="518.9223" y="490.4301">0..1</text></g><!--link TrainingSessions to TechnicalSessions--><g class="link" data-entity-1="ent0005" data-entity-2="ent0009" data-link-type="association" data-source-line="113" id="lnk18"><path codeLine="113" d="M608.37,408.43 C638.67,442.29 674.89,482.77 706.05,517.6" fill="none" id="TrainingSessions-TechnicalSessions" style="stroke:#181818;stroke-width:1;"/><text fill="#000000" font-family="sans-serif" font-size="13" lengthAdjust="spacing" textLength="8.271" x="606.1552" y="428.1911">1</text><text fill="#000000" font-family="sans-serif" font-size="13" lengthAdjust="spacing" textLength="24.8066" x="674.6263" y="506.773">0..1</text></g><!--link TrainingSessions to PhysicalConditioningSessions--><g class="link" data-entity-1="ent0005" data-entity-2="ent0010" data-link-type="association" data-source-line="114" id="lnk19"><path codeLine="114" d="M641.77,376.66 C713.74,407.66 812.98,453.2 895.81,501.46 C908.43,508.81 921.37,517.02 934,525.45" fill="none" id="TrainingSessions-PhysicalConditioningSessions" style="stroke:#181818;stroke-width:1;"/><text fill="#000000" font-family="sans-serif" font-size="13" lengthAdjust="spacing" textLength="8.271" x="649.5868" y="376.3266">1</text><text fill="#000000" font-family="sans-serif" font-size="13" lengthAdjust="spacing" textLength="24.8066" x="899.5723" y="514.8181">0..1</text></g><!--link SessionRepository to SessionRecord--><g class="link" data-entity-1="ent0012" data-entity-2="ent0011" data-link-type="dependency" data-source-line="115" id="lnk20"><path codeLine="115" d="M1234.62,145 C1221.73,174.82 1207.9513,206.7028 1193.4013,240.3528" fill="none" id="SessionRepository-to-SessionRecord" style="stroke:#181818;stroke-width:1;stroke-dasharray:7,7;"/><polygon fill="#181818" points="1191.02,245.86,1198.2634,239.1867,1193.0044,241.2706,1190.9204,236.0116,1191.02,245.86" style="stroke:#181818;stroke-width:1;"/></g><!--link SessionRepository to DBProvider--><g class="link" data-entity-1="ent0012" data-entity-2="ent0013" data-link-type="dependency" data-source-line="116" id="lnk21"><path codeLine="116" d="M1321.78,145 C1366.81,185 1422.6548,234.6246 1467.6148,274.5746" fill="none" id="SessionRepository-to-DBProvider" style="stroke:#181818;stroke-width:1;stroke-dasharray:7,7;"/><polygon fill="#181818" points="1472.1,278.56,1468.0292,269.5918,1468.3624,275.2389,1462.7153,275.572,1472.1,278.56" style="stroke:#181818;stroke-width:1;"/></g><!--link DBProvider to sessions table--><g class="link" data-entity-1="ent0013" data-entity-2="ent0022" data-link-type="dependency" data-source-line="117" id="lnk23"><path codeLine="117" d="M1534.81,392.05 C1534.81,448.76 1534.81,527.88 1534.81,568.55" fill="none" id="DBProvider-to-sessions table" style="stroke:#181818;stroke-width:1;stroke-dasharray:7,7;"/><polygon fill="#181818" points="1534.81,574.55,1538.81,565.55,1534.81,569.55,1530.81,565.55,1534.81,574.55" style="stroke:#181818;stroke-width:1;"/></g><!--SRC=[fPNTRzem4C3V-IiiNihMbcslgAA2eacLkgs2zdaozf5OE7PgEtJHjFzzvtmqSHAWsfx0z_axt-LyGLOweKAHH7EGTiGajPOiN2p10Vaz8kIQ23uZ6sU4YegZeWa40auT_DWjXN7nZApmy2GIA3GHA0ucCDw2T0zm01b8hQCkiotH9N6wF4m-l8d_Z2g-PmkcWklH09OJ1ZTQXYRC059oZne0dqvwfocBlsi7TlXUdC5xnCC6h1LQtNUqUHf296X6eq6mXMjXlUL_2kCVeU2LNwSJjEne1uhvaZeoMuP_wlBMvQt1Pj8rJhTzmjBa2A0-WA5IRfWsc83hR2kXWb4EMzLNs1I03uYT0HMvkD88vHgIpLv8kQOEanx1G6-nnqFfM0oEufcXYa4Zuh03PNl1wyGd6t5w7DBCni-fRL9PuSBpIqPTwxmNRF-eN_tNL8jytJLB8vKGzONiRNQ7sWOiLe9H-Jy55Krg4cwf3A-owcuZC3fJFDQPXGLZUF4iVoVkOvnRJtkd5HSEISv-4sV87Ks4eatsdOHVOYkaS2qa_3APJxO9wpn9MkLR0tQA_mlQy5Txx0jDQIurHTjlDBqfvLSynmKfsFpuRl1BRxNr2m_TYhDVneAHdT49Ab3gbs6xb84AKuq3h4rUL7c9ruD1YlxtBCeKz02J82Rc-9gvpC3DGGi-BwmYSCkyUeicPK6DsOEmxYO8CI-zy1r3-sL-pti-sBLv0xzQFXfz4BnwIzhKZQfMW74JHt7tN97oHjeXlSrB1YQlJLvZC71R_IvCP6yxu1WZm7sFOqr_GTOWgHz66ulKaay4gz5CbA9H_NYFlup9zJKPVvvEFuxxhyUCnDIEUc9lNZb-6VSs-epGA38GuVWCk0O9My_bZ2Gq_nbZpqywuR_kQZrdtrjTvnnEBOzHVvgdqtbdz8TjMlFIcYgl6TiQfEZm-2y0]--></g></svg>